<svg xmlns="http://www.w3.org/2000/svg" viewBox="0 0 1200 630" role="img" aria-labelledby="title desc">
  <title id="title">Yoeli Barthel - Software Engineer</title>
  <desc id="desc">Portfolio preview card for Yoeli Barthel.</desc>
  <defs>
    <radialGradient id="blue" cx="22%" cy="18%" r="70%">
      <stop offset="0" stop-color="#2563eb" stop-opacity="0.85"/>
      <stop offset="1" stop-color="#2563eb" stop-opacity="0"/>
    </radialGradient>
    <radialGradient id="purple" cx="82%" cy="78%" r="65%">
      <stop offset="0" stop-color="#7c3aed" stop-opacity="0.8"/>
      <stop offset="1" stop-color="#7c3aed" stop-opacity="0"/>
    </radialGradient>
    <linearGradient id="text" x1="0" y1="0" x2="1" y2="0">
      <stop offset="0" stop-color="#60a5fa"/>
      <stop offset="0.55" stop-color="#3b82f6"/>
      <stop offset="1" stop-color="#8b5cf6"/>
    </linearGradient>
  </defs>
  <rect width="1200" height="630" fill="#020617"/>
  <rect width="1200" height="630" fill="url(#blue)"/>
  <rect width="1200" height="630" fill="url(#purple)"/>
  <g opacity="0.16">
    <path d="M0 120h1200M0 240h1200M0 360h1200M0 480h1200M160 0v630M320 0v630M480 0v630M640 0v630M800 0v630M960 0v630" stroke="#94a3b8"/>
  </g>
  <rect x="86" y="86" width="1028" height="458" rx="36" fill="#0f172a" fill-opacity="0.62" stroke="#ffffff" stroke-opacity="0.14"/>
  <text x="130" y="215" fill="#cbd5e1" font-family="Inter, Arial, sans-serif" font-size="34" font-weight="600">Portfolio</text>
  <text x="130" y="320" fill="url(#text)" font-family="Inter, Arial, sans-serif" font-size="86" font-weight="800">Yoeli Barthel</text>
  <text x="134" y="395" fill="#f8fafc" font-family="Inter, Arial, sans-serif" font-size="44" font-weight="600">Software Engineer</text>
  <text x="134" y="462" fill="#94a3b8" font-family="Inter, Arial, sans-serif" font-size="28" font-weight="400">AI · Web Development · Data</text>
  <circle cx="1005" cy="190" r="58" fill="#020617" stroke="#60a5fa" stroke-opacity="0.35"/>
  <text x="1005" y="211" text-anchor="middle" fill="url(#text)" font-family="Inter, Arial, sans-serif" font-size="44" font-weight="800">YB</text>
</svg>
